<?xml version="1.0" encoding="UTF-8"?>
<svg id="Calque_1" data-name="Calque 1" xmlns="http://www.w3.org/2000/svg" viewBox="0 0 32 21.26">
  <defs>
    <style>
      .cls-1 {
        fill: #7f7f7f;
      }
    </style>
  </defs>
  <g id="Icone">
    <path class="cls-1" d="M14.44,1.89c-1.65,.63-3.56,3.47-4.74,3.88-1.68,.58-3.06,.13-6.07,.14-1.24,0-2.66,.58-3.63,1.46,1.35,3.69,1.29,4.38,3,7.99,1.07,2.27,3.87,4.56,6.83,5.72,1.36,.54,2.4-.31,2.84-1.11,.55-.99,1.36-2.46,1.98-3.8s1.14-8.51-.21-14.3ZM2.94,12.07c1.5-.11,3.34-.42,3.99-.26,.55,.13,1.36,.51,2.35,1.93-.39-.12-.53-.27-.86-.25-.48,.02-.84,.33-1.31,.33-1.56,.01-2.58-1.64-4.17-1.75Zm9.64,5.62c-.26,.59-.57,1.16-.93,1.69-.47,.79-.82,.81-1.78,.23-.5-.3-1.05-.92-1.31-1.15-.78-.71-1.26-1.15-2.53-1.52,.18-.02,.66-.1,1.2-.03s1.18,.35,2.14,.22,1.13-.39,1.5-.54c.47-.19,1.92-.5,2.27-.84,.19-.19,.5-.43,.78-.47-.11,.06-.92,1.44-1.35,2.4Zm.74-6.61c-.56,.94-1.15,1.13-1.48,1.42-.3,.25-.55,.56-.72,.91-.21-1.47,.21-3.1,1.64-3.83,.32-.16,1.37-.58,1.79-.7-.42,.51-.9,1.66-1.23,2.2h0Z"/>
    <path class="cls-1" d="M27.69,3.47c-2.22,0-1.9,.54-3.99,.22-2.13-.33-3.39-2.1-4.33-3.04-.41-.41-1.81-1.59-2.16,.81-.36,2.51-.81,4.37-1.3,7.27-.63,3.72,.63,6.89,1.36,8.08,1.05,1.71,2.02,1.44,3.13,1.18,2.07-.48,4.41-1.4,5.98-3.45,2.56-3.36,3.86-5.76,5.62-9.81-1.27-1.11-2.26-1.27-4.31-1.27Zm-9.46,4.46c.42-.19,.81-.33,2.39-.16-.35,.29-.64,.84-.87,1.05-.36,.33-1.09,1.08-2.2,.37-.38-.24-.66-.34-1.05-.56,.58,.04,1.32-.51,1.74-.7Zm2.92,8.05c-.4,.16-1.71,.38-1.94,.37s-.86,.22-1.43-1.22c-.19-.47-.32-.88-.7-1.08,.39-.35,1.43-.9,2-.96,.34-.03,.47,.11,.7,.2,.32,.12,.64,.08,.8,.18,.19,.12,.98,1.04,1.57,2.71-.24-.32-.61-.36-1.01-.2Zm3.84-4.11c-1.48,.05-1.48-.81-1.62-1.25-.1-.32-.22-1.83-.48-2.24,1.52,.64,1.66,1.01,2.12,1.7s.68,.98,1.8,1.91c-.72,0-1.3-.14-1.82-.12Z"/>
  </g>
</svg>