<svg xmlns="http://www.w3.org/2000/svg" viewBox="0 0 510.6 339.26"><path fill="white" d="M230.37 30.08c-26.26 10-56.76 55.43-75.59 61.95-26.87 9.3-48.86 2.14-96.91 2.31-19.8.06-42.45 9.32-57.87 23.37 21.47 58.94 20.54 69.86 47.86 127.57 17.13 36.2 61.69 72.72 108.93 91.29 21.78 8.56 38.23-5 45.27-17.69 8.75-15.82 21.7-39.32 31.61-60.62s18.12-135.76-3.3-228.18ZM46.85 192.62c24-1.7 53.34-6.75 63.62-4.22 8.76 2.15 21.67 8.08 37.55 30.75-6.15-1.84-8.44-4.23-13.77-4-7.65.28-13.42 5.25-20.84 5.33-24.84.22-41.13-26.12-66.56-27.86Zm153.81 89.63a176.17 176.17 0 0 1-14.83 27c-7.5 12.59-13.09 12.9-28.43 3.74-8-4.78-16.79-14.62-20.9-18.37-12.42-11.32-20.09-18.38-40.33-24.23 2.88-.25 10.53-1.53 19.22-.43s18.88 5.57 34.12 3.46 18-6.17 24-8.6c7.57-3.06 30.66-7.93 36.17-13.44 3-3 7.93-6.92 12.5-7.49-1.69.99-14.62 22.99-21.52 38.36Zm11.81-105.43c-9 15-18.37 18.09-23.58 22.59a45.77 45.77 0 0 0-11.52 14.58c-3.28-23.51 3.36-49.51 26.17-61.07 5.06-2.57 21.81-9.32 28.54-11.24-6.73 8.16-14.42 26.53-19.63 35.14ZM441.89 55.37c-35.5 0-30.29 8.64-63.71 3.49-34-5.23-54.08-33.45-69.07-48.44-6.58-6.58-28.92-25.37-34.42 13-5.73 40-12.87 69.69-20.75 116-10.1 59.42 10.09 110 21.72 129 16.79 27.3 32.2 23 49.94 18.85 32.95-7.73 70.4-22.32 95.36-55.08 40.83-53.6 61.67-91.94 89.64-156.48-20.33-17.72-36.12-20.34-68.71-20.34Zm-150.93 71.18c6.67-3.06 13-5.2 38.07-2.57-5.51 4.59-10.2 13.43-13.92 16.77-5.81 5.24-17.45 17.24-35.17 5.87-6-3.89-10.46-5.37-16.77-8.92 9.32.59 21.12-8.09 27.79-11.15Zm46.53 128.38c-6.33 2.48-27.32 6.08-31 5.89s-13.69 3.48-22.81-19.45c-3-7.47-5.17-14-11.18-17.26 6.29-5.51 22.86-14.41 31.95-15.24 5.5-.5 7.43 1.83 11.2 3.21 5.08 1.87 10.26 1.22 12.79 2.84 3 1.91 15.64 16.66 25.12 43.25-3.75-5.05-9.73-5.72-16.07-3.24Zm61.25-65.52c-23.56.85-23.64-12.95-25.89-19.91-1.67-5.17-3.44-29.16-7.62-35.73 24.24 10.28 26.44 16.16 33.88 27.08s10.78 15.64 28.69 30.51c-11.46.11-20.8-2.25-29.06-1.95Z"/></svg>
